<svg xmlns="http://www.w3.org/2000/svg" width="17.479" height="19.421" viewBox="0 0 17.479 19.421"><defs>
    <style>.a
        {fill:#909090;}
    </style></defs>
    <path class="a" d="M18.537,2.942H14.478A2.9,2.9,0,0,0,9,2.942H4.942A1.948,1.948,0,0,0,3,4.884V18.479a1.948,1.948,0,0,0,1.942,1.942H18.537a1.948,1.948,0,0,0,1.942-1.942V4.884A1.948,1.948,
    0,0,0,18.537,2.942Zm-6.8,0a.971.971,0,1,1-.971.971A.974.974,0,0,1,11.74,2.942Zm1.942,13.595h-6.8V14.595h6.8Zm2.913-3.884H6.884V10.711h9.711Zm0-3.884H6.884V6.826h9.711Z"
            transform="translate(-3 -1)"/></svg>