<?xml version="1.0" encoding="UTF-8"?>
<svg xmlns="http://www.w3.org/2000/svg" xmlns:xlink="http://www.w3.org/1999/xlink" width="20pt" height="11.455pt" viewBox="0 0 20 20" version="1.1">
<g id="surface1">
<path style=" stroke:none;fill-rule:nonzero;fill:rgb(0%,0%,0%);fill-opacity:1;" d="M 15 11.230469 L 15 8.738281 L 10.015625 8.738281 L 10.015625 6.246094 L 15 6.246094 L 15 3.753906 L 19.984375 7.507812 Z M 12.507812 14.984375 L 7.523438 14.984375 L 7.523438 3.753906 L 2.539062 1.261719 L 12.539062 1.261719 L 12.539062 5.015625 L 13.800781 5.015625 L 13.800781 1.261719 C 13.800781 0.585938 13.246094 0 12.539062 0 L 1.277344 0 C 0.601562 0 0.015625 0.554688 0.015625 1.261719 L 0.015625 15.476562 C 0.015625 15.96875 0.292969 16.398438 0.691406 16.613281 L 7.492188 20 L 7.492188 16.246094 L 12.476562 16.246094 C 13.152344 16.246094 13.738281 15.691406 13.738281 14.984375 L 13.738281 10 L 12.476562 10 L 12.476562 14.984375 Z M 12.507812 14.984375 "/>
</g>
</svg>
